<?xml version="1.0" encoding="UTF-8" standalone="no"?>
<svg
   width="40"
   height="34"
   viewBox="0 0 40 34"
   fill="none"
   version="1.1"
   id="svg8"
   sodipodi:docname="Add_animal.svg"
   inkscape:version="1.2.1 (9c6d41e410, 2022-07-14)"
   xmlns:inkscape="http://www.inkscape.org/namespaces/inkscape"
   xmlns:sodipodi="http://sodipodi.sourceforge.net/DTD/sodipodi-0.dtd"
   xmlns="http://www.w3.org/2000/svg"
   xmlns:svg="http://www.w3.org/2000/svg">
  <defs
     id="defs12" />
  <sodipodi:namedview
     id="namedview10"
     pagecolor="#ffffff"
     bordercolor="#000000"
     borderopacity="0.25"
     inkscape:showpageshadow="2"
     inkscape:pageopacity="0.0"
     inkscape:pagecheckerboard="0"
     inkscape:deskcolor="#d1d1d1"
     showgrid="false"
     inkscape:zoom="24.617647"
     inkscape:cx="19.985663"
     inkscape:cy="17.020311"
     inkscape:window-width="1920"
     inkscape:window-height="1017"
     inkscape:window-x="1912"
     inkscape:window-y="-8"
     inkscape:window-maximized="1"
     inkscape:current-layer="svg8" />
  <path
     d="M7.09311 0.272984C6.20591 1.62653 6.8315 4.69759 8.32153 6.32411C8.90162 6.97245 9.91394 7.55254 10.6533 7.67765L11.0969 7.7459L10.9262 8.33736C10.8353 8.66722 10.7443 8.95158 10.7215 8.97433C10.6988 8.99707 10.312 8.86058 9.85706 8.66722C8.68551 8.17812 7.76419 7.96201 6.55852 7.89377C4.02205 7.7459 1.67894 8.71272 0.780371 10.271C0.473265 10.7942 0.439142 10.9648 0.46189 11.6587C0.473265 12.2615 0.427768 12.5572 0.257153 12.853C0.0637899 13.2169 0.0410413 13.5582 0.00691842 17.0273C-0.0158302 19.4159 0.0182927 20.9628 0.0979128 21.2472C0.257153 21.8842 1.00786 22.6917 1.66757 22.942C2.12254 23.1126 2.54339 23.1467 4.53389 23.1467H6.86562L7.47983 22.7941C7.82106 22.6007 8.25329 22.2368 8.44665 21.9638L8.79925 21.4747L8.822 17.1411L8.83338 12.7961L9.27697 12.6596C10.0845 12.4094 10.0618 12.398 10.1414 13.615C10.1869 14.2293 10.2893 15.0368 10.3917 15.4122C10.6191 16.288 11.3243 17.7667 12.1092 19.0065C13.8608 21.7932 14.1338 23.2604 13.5651 27.0708C13.0646 30.4718 14.2703 32.485 17.2731 33.2243C18.2399 33.4632 21.7773 33.4404 22.7328 33.1788C24.5982 32.6784 25.7356 31.6774 26.1906 30.1419C26.418 29.3798 26.418 27.8557 26.2019 26.3315C26.1109 25.7059 26.0313 24.705 26.0313 24.1135C26.0313 22.2595 26.4067 21.179 27.7943 18.9382C29.1251 16.7885 29.5801 15.5487 29.728 13.5582C29.7735 12.9781 29.8531 12.5117 29.8872 12.5117C30.2626 12.5117 31.5592 12.9781 32.6284 13.5013C34.1526 14.252 34.6758 14.343 36.0066 14.0473C37.5649 13.706 38.8843 12.944 39.3051 12.1364C39.8511 11.0672 38.8274 9.39517 37.1213 8.5876C35.9611 8.04163 35.2673 7.90514 33.709 7.91651C32.1393 7.92789 31.1953 8.12125 29.9555 8.68997L29.1251 9.07669L29 8.5876C28.9318 8.32599 28.8521 8.03026 28.818 7.93926C28.7612 7.80277 28.8635 7.7459 29.182 7.67765C31.3659 7.26818 33.1061 4.8227 33.1289 2.10425C33.1516 0.648336 32.8445 6.30138e-07 32.1621 6.30138e-07C31.582 6.30138e-07 31.1953 0.295732 30.763 1.05781C30.2398 1.9905 29.5119 2.66159 28.4768 3.13931C26.782 3.92413 25.2806 4.03788 23.4721 3.54878C21.3906 2.96869 18.4902 2.96869 16.42 3.53741C14.566 4.06063 12.9964 3.91276 11.2675 3.07106C10.1869 2.55922 9.59545 2.00188 9.08361 1.03506C8.66276 0.26161 8.31016 6.30138e-07 7.6732 6.30138e-07C7.37747 6.30138e-07 7.21823 0.0682464 7.09311 0.272984ZM22.619 6.02838C24.9735 6.69946 26.0427 7.89377 25.8835 9.66816C25.7583 11.0672 24.7801 12.5686 22.8465 14.3316C22.2778 14.8662 21.7318 15.4236 21.6522 15.5828C21.4361 16.0264 21.2086 19.3932 21.2996 21.0311C21.4361 23.795 21.766 24.6254 23.256 25.9789C24.0636 26.7182 24.2342 26.9457 24.382 27.4348C24.9508 29.3684 23.9384 30.7106 21.4816 31.2338C20.0029 31.5523 18.0352 31.3362 16.8523 30.722C16.2949 30.4376 15.6921 29.8348 15.4987 29.3798C15.2712 28.8452 15.3054 27.7874 15.567 27.2187C15.6921 26.9343 16.2267 26.2974 16.8523 25.6832C17.8418 24.7164 17.9556 24.5571 18.1603 23.886C18.5357 22.6804 18.6721 20.4396 18.5357 18.2216C18.3423 15.4349 18.4902 15.7762 16.8636 14.1951C15.3167 12.6823 14.5547 11.67 14.202 10.6691C13.9291 9.88427 13.9063 8.80371 14.1565 8.21225C14.6229 7.09757 16.0219 6.23312 18.0124 5.84639C19.1726 5.61891 21.5157 5.7099 22.619 6.02838ZM5.27322 11.5677C5.50071 11.8634 5.87606 12.489 6.10354 12.9553L6.52439 13.8084L6.55852 17.1297C6.59264 20.0643 6.56989 20.4737 6.41065 20.633C6.25141 20.7809 5.93293 20.815 4.43152 20.815C3.19172 20.815 2.60026 20.7695 2.50926 20.6785C2.4069 20.5761 2.37277 19.6434 2.37277 17.1752V13.8198L2.87324 12.9667C3.53295 11.8293 4.24953 11.0331 4.59076 11.0331C4.78412 11.0331 4.98886 11.1923 5.27322 11.5677Z"
     fill="#006AA9"
     id="path2" />
  <path
     d="M19.1614 26.2744C18.4675 26.5474 17.6258 27.1047 17.3528 27.4801C17.2391 27.6393 17.114 27.9351 17.0799 28.1512C17.0344 28.4697 17.0685 28.5834 17.3187 28.8109C17.7851 29.2431 18.5358 29.4023 20.0599 29.4023C21.5841 29.391 22.312 29.1749 22.676 28.6175C23.0741 28.0033 22.4599 27.1389 21.1519 26.5019C20.2192 26.0356 19.8438 25.9901 19.1614 26.2744Z"
     fill="#006AA9"
     id="path4" />
  <path
     d="M3.85249 12.8525C3.71599 12.989 3.625 13.2279 3.625 13.4781C3.625 14.297 4.60319 14.661 5.09228 14.0354C5.41077 13.6373 5.38802 13.2506 5.04679 12.9094C4.70556 12.5568 4.17097 12.534 3.85249 12.8525Z"
     fill="#006AA9"
     id="path6" />
  <path
     style="fill:#000000;stroke:#24d810;stroke-width:1;stroke-linecap:round;stroke-dasharray:none;stroke-opacity:1;paint-order:stroke markers fill"
     d="m 34.017106,16.614097 v 9.870968"
     id="path849" />
  <path
     style="fill:#000000;stroke:#24d810;stroke-width:1;stroke-linecap:round;stroke-dasharray:none;stroke-opacity:1;paint-order:stroke markers fill"
     d="M 38.95259,21.549581 H 29.081622"
     id="path849-0" />
</svg>
