<svg width="40" height="34" viewBox="0 0 40 34" fill="none" xmlns="http://www.w3.org/2000/svg">
<path d="M7.19152 0.276871C6.29202 1.64919 6.92628 4.76287 8.43699 6.41196C9.02513 7.06929 10.0515 7.65743 10.8011 7.78428L11.2508 7.85347L11.0778 8.45314C10.9856 8.78757 10.8933 9.07588 10.8703 9.09894C10.8472 9.12201 10.4551 8.98362 9.99383 8.78757C8.80602 8.29169 7.87192 8.07258 6.64951 8.00339C4.07785 7.85347 1.70224 8.8337 0.791198 10.4136C0.479831 10.9441 0.445235 11.1171 0.468299 11.8205C0.479831 12.4317 0.433703 12.7316 0.260721 13.0314C0.064675 13.4004 0.0416108 13.7464 0.00701441 17.2637C-0.0160498 19.6854 0.0185465 21.2538 0.0992713 21.5421C0.260721 22.1879 1.02184 23.0067 1.6907 23.2604C2.15199 23.4334 2.57868 23.468 4.5968 23.468H6.96088L7.58362 23.1105C7.92958 22.9144 8.3678 22.5454 8.56385 22.2686L8.92134 21.7727L8.94441 17.379L8.95594 12.9737L9.40569 12.8353C10.2245 12.5816 10.2014 12.5701 10.2821 13.804C10.3283 14.4268 10.432 15.2456 10.5358 15.6261C10.7665 16.5141 11.4815 18.0133 12.2772 19.2703C14.0531 22.0956 14.3299 23.5833 13.7533 27.4465C13.2459 30.8946 14.4683 32.9358 17.5128 33.6854C18.493 33.9276 22.0795 33.9045 23.0482 33.6393C24.9395 33.1319 26.0927 32.117 26.5539 30.5602C26.7846 29.7876 26.7846 28.2423 26.5655 26.697C26.4732 26.0627 26.3925 25.0479 26.3925 24.4482C26.3925 22.5685 26.7731 21.4729 28.18 19.2011C29.5292 17.0215 29.9905 15.7645 30.1404 13.7464C30.1866 13.1582 30.2673 12.6854 30.3019 12.6854C30.6824 12.6854 31.9971 13.1582 33.0811 13.6887C34.6264 14.4498 35.1569 14.5421 36.5062 14.2423C38.0861 13.8963 39.4238 13.1236 39.8505 12.3049C40.404 11.2208 39.3661 9.52563 37.6363 8.70685C36.46 8.15331 35.7566 8.01492 34.1767 8.02645C32.5852 8.03799 31.6281 8.23403 30.3711 8.81064L29.5292 9.20273L29.4024 8.70685C29.3332 8.44161 29.2525 8.14178 29.2179 8.04952C29.1602 7.91113 29.264 7.85347 29.5869 7.78428C31.8011 7.36912 33.5655 4.88972 33.5885 2.13354C33.6116 0.657433 33.3002 9.91821e-05 32.6083 9.91821e-05C32.0202 9.91821e-05 31.6281 0.299934 31.1899 1.07259C30.6594 2.01822 29.9213 2.69862 28.8719 3.18296C27.1536 3.97868 25.6314 4.094 23.7978 3.59812C21.6874 3.00998 18.7467 3.00998 16.6479 3.58659C14.7681 4.11707 13.1767 3.96715 11.4238 3.11377C10.3283 2.59483 9.72859 2.02975 9.20964 1.04952C8.78296 0.265339 8.42546 9.91821e-05 7.77966 9.91821e-05C7.47983 9.91821e-05 7.31838 0.069294 7.19152 0.276871ZM22.9329 6.11212C25.32 6.79252 26.404 8.00339 26.2426 9.8024C26.1157 11.2208 25.124 12.7431 23.1635 14.5306C22.5869 15.0726 22.0334 15.6377 21.9526 15.7991C21.7335 16.2489 21.5029 19.6624 21.5951 21.323C21.7335 24.1253 22.068 24.9671 23.5787 26.3395C24.3974 27.089 24.5704 27.3197 24.7203 27.8156C25.2969 29.776 24.2706 31.1368 21.7797 31.6673C20.2805 31.9902 18.2854 31.7711 17.0861 31.1484C16.521 30.86 15.9098 30.2488 15.7138 29.7876C15.4831 29.2456 15.5177 28.1731 15.783 27.5965C15.9098 27.3082 16.4518 26.6624 17.0861 26.0396C18.0894 25.0594 18.2047 24.8979 18.4123 24.2175C18.7928 22.9951 18.9312 20.7233 18.7928 18.4746C18.5968 15.6492 18.7467 15.9951 17.0976 14.3922C15.5292 12.8584 14.7566 11.8321 14.3991 10.8172C14.1223 10.0215 14.0993 8.92596 14.353 8.32629C14.8258 7.19614 16.2442 6.3197 18.2624 5.92761C19.4386 5.69697 21.8142 5.78922 22.9329 6.11212ZM5.34638 11.7283C5.57703 12.0281 5.95759 12.6624 6.18823 13.1352L6.61492 14.0001L6.64951 17.3675C6.68411 20.3428 6.66105 20.7579 6.4996 20.9194C6.33815 21.0693 6.01525 21.1039 4.49301 21.1039C3.23601 21.1039 2.63634 21.0577 2.54408 20.9655C2.44029 20.8617 2.40569 19.9161 2.40569 17.4136V14.0116L2.91311 13.1467C3.58197 11.9935 4.30849 11.1863 4.65446 11.1863C4.8505 11.1863 5.05808 11.3477 5.34638 11.7283Z" fill="#0B9DDD"/>
<path d="M19.4275 26.6392C18.7241 26.916 17.8707 27.4811 17.5939 27.8616C17.4786 28.0231 17.3518 28.3229 17.3172 28.542C17.271 28.8649 17.3056 28.9802 17.5593 29.2109C18.0321 29.6491 18.7933 29.8105 20.3386 29.8105C21.8839 29.799 22.6219 29.5799 22.991 29.0148C23.3946 28.3921 22.7718 27.5157 21.4457 26.8699C20.5 26.397 20.1195 26.3509 19.4275 26.6392Z" fill="#0B9DDD"/>
<path d="M3.90447 13.0314C3.76609 13.1698 3.67383 13.412 3.67383 13.6657C3.67383 14.496 4.66559 14.865 5.16147 14.2308C5.48437 13.8271 5.46131 13.435 5.11534 13.0891C4.76938 12.7316 4.22737 12.7085 3.90447 13.0314Z" fill="#0B9DDD"/>
</svg>
