<svg width="40" height="32" viewBox="0 0 40 32" fill="none" xmlns="http://www.w3.org/2000/svg">
<path d="M5.58098 0.253603C4.82516 0.765232 4.58098 1.64895 4.97632 2.43965C5.31353 3.11407 5.75539 3.32337 7.06935 3.40476C10.86 3.66058 14.2089 5.60244 16.2903 8.7536C17.1507 10.0676 17.8833 11.9396 18.0461 13.2536L18.081 13.5443L16.3252 13.6024C14.8135 13.6489 14.5228 13.6955 14.3252 13.8815C14.0112 14.1606 13.8949 14.6838 14.081 15.021C14.2903 15.428 19.0693 22.4629 19.3252 22.7536C19.4531 22.8931 19.6856 23.0327 19.8484 23.0792C20.5228 23.242 20.6972 23.0443 23.4879 18.9513C26.4182 14.6373 26.4879 14.4978 25.8717 13.8931C25.6042 13.6141 25.5461 13.6024 23.7903 13.6024C22.8019 13.6024 21.9647 13.5675 21.9414 13.5094C21.8484 13.3699 22.3949 11.3699 22.7786 10.4629C23.8368 7.98616 26.174 5.61407 28.6972 4.45128C29.86 3.91639 31.5228 3.49779 32.9182 3.40476C34.1972 3.32337 34.6275 3.14895 34.9996 2.53267C35.4531 1.78849 35.1856 0.776859 34.4182 0.253603C34.0344 -0.0138378 33.9414 -0.0254669 32.7321 0.0326729C30.5693 0.137325 28.7438 0.614069 26.8135 1.57918C24.1391 2.92802 21.7554 5.16058 20.4414 7.55593C20.2321 7.93965 20.0345 8.2536 19.9996 8.2536C19.9647 8.2536 19.8019 7.97453 19.6275 7.63732C19.1159 6.66058 17.8717 5.10244 16.86 4.14895C14.174 1.6257 10.8717 0.207092 7.26702 0.0326729C6.05772 -0.0254669 5.9647 -0.0138378 5.58098 0.253603Z" fill="#0B9DDD"/>
<path d="M13.1395 20.8699C4.52327 21.6025 0.0116467 23.3118 1.88362e-05 25.8466C-0.0116091 28.6839 5.36048 30.4629 15.6977 31.0443C23.7326 31.4978 33.0814 30.5792 36.9767 28.9513C39 28.1141 40 27.0792 40 25.8466C39.9767 23.2769 35.4419 21.5908 26.6512 20.8699C23.4651 20.6025 23.8605 20.4978 22.907 21.8815C21.7209 23.6257 21.5349 23.835 21 24.0792C20.3954 24.3466 19.8372 24.3583 19.2442 24.0792C18.6744 23.8234 18.314 23.428 17.2791 21.8815L16.4651 20.6955L15.7093 20.7071C15.2907 20.7187 14.1279 20.7885 13.1395 20.8699ZM16.814 22.4978C17.3256 22.7071 17.2791 22.9164 16.6744 23.1141C16.1744 23.2885 14.9302 23.2304 14.5233 23.0211C13.6744 22.5559 15.8023 22.0792 16.814 22.4978ZM25.2209 22.4746C26.0465 22.7653 25.7093 23.1025 24.5 23.2071C23.7326 23.2769 22.907 23.0792 22.814 22.8118C22.6861 22.4164 24.3721 22.1839 25.2209 22.4746ZM12.5582 23.5211C12.7791 23.6025 12.9651 23.742 12.9651 23.835C12.9651 23.928 12.7791 24.0676 12.5582 24.149C11.7209 24.428 10.1744 24.2304 10.1744 23.835C10.1744 23.6025 10.8489 23.3815 11.5698 23.3815C11.8954 23.3815 12.3372 23.4397 12.5582 23.5211ZM29.6512 23.5211C29.8721 23.6025 30.0581 23.742 30.0581 23.835C30.0581 23.928 29.8721 24.0676 29.6512 24.149C28.814 24.428 27.2674 24.2304 27.2674 23.835C27.2674 23.6025 27.9419 23.3815 28.6628 23.3815C28.9884 23.3815 29.4302 23.4397 29.6512 23.5211ZM16.5581 24.5211C17.6279 24.7769 17.314 25.2304 16.0233 25.3234C15.1047 25.3815 14.2326 25.1373 14.3256 24.8583C14.4419 24.5211 15.7093 24.335 16.5581 24.5211ZM25.1628 24.5676C25.7791 24.7536 25.814 24.9629 25.2675 25.1839C24.3837 25.5559 22.4186 25.2071 22.8721 24.7536C23.1861 24.4397 24.407 24.3466 25.1628 24.5676ZM4.81397 25.3932C6.41862 26.3583 10.3954 26.9629 16.8837 27.2071C19.0465 27.3001 20.9535 27.3001 23.1047 27.2071C29.6163 26.9629 33.5814 26.3583 35.1861 25.3932C35.6395 25.1257 35.9302 25.0211 36.093 25.0676C36.5581 25.2071 37.4419 25.7304 37.4419 25.8699C37.4419 26.3001 34.8372 27.2187 32.1744 27.7304C28.3488 28.4513 25.7209 28.6606 20 28.6606C14.2791 28.6606 11.6512 28.4513 7.8256 27.7304C5.13955 27.2187 2.55816 26.3001 2.55816 25.8583C2.55816 25.7304 3.84885 24.9978 4.06978 24.9978C4.1163 24.9978 4.45351 25.1722 4.81397 25.3932ZM20.9651 25.3583C21.8372 25.6025 21.1744 26.149 20 26.149C18.8721 26.149 18.1512 25.6025 18.9768 25.3583C19.5 25.2071 20.4302 25.2071 20.9651 25.3583Z" fill="#0B9DDD"/>
</svg>
