<svg width="20" height="20" viewBox="0 0 20 20" fill="none" xmlns="http://www.w3.org/2000/svg">
<g clip-path="url(#clip0_14_2722)">
<path d="M11.7282 3.23771C12.3492 2.56491 12.6597 2.2285 12.9896 2.03228C13.7857 1.5588 14.766 1.54408 15.5754 1.99344C15.9108 2.17967 16.2309 2.5066 16.8709 3.16047C17.511 3.81434 17.8311 4.14127 18.0134 4.48394C18.4533 5.31077 18.4388 6.31216 17.9754 7.12542C17.7833 7.46247 17.454 7.77965 16.7953 8.41401L8.95894 15.9617C7.71081 17.1639 7.08675 17.765 6.3068 18.0696C5.52685 18.3743 4.66942 18.3518 2.95455 18.307L2.72123 18.3009C2.19917 18.2872 1.93814 18.2804 1.7864 18.1082C1.63467 17.936 1.65538 17.6701 1.69681 17.1383L1.71931 16.8496C1.83592 15.3528 1.89423 14.6044 2.1865 13.9317C2.47878 13.259 2.98294 12.7127 3.99127 11.6203L11.7282 3.23771Z" stroke="#006AA9" stroke-width="1.5" stroke-linejoin="round"/>
<path d="M10.8335 3.33301L16.6668 9.16634" stroke="#006AA9" stroke-width="1.5" stroke-linejoin="round"/>
<path d="M11.6667 18.333L18.3334 18.333" stroke="#006AA9" stroke-width="1.5" stroke-linecap="round" stroke-linejoin="round"/>
</g>
<defs>
<clipPath id="clip0_14_2722">
<rect width="20" height="20" fill="white"/>
</clipPath>
</defs>
</svg>
