<svg width="25" height="22" viewBox="0 0 25 22" fill="none" xmlns="http://www.w3.org/2000/svg">
<path d="M4.4947 0.172801C3.93251 1.0305 4.32893 2.97655 5.27312 4.00723C5.64071 4.41806 6.28218 4.78565 6.75067 4.86493L7.03177 4.90818L6.92365 5.28297C6.86599 5.49199 6.80833 5.67218 6.79392 5.68659C6.7795 5.70101 6.53445 5.61452 6.24614 5.49199C5.50376 5.18206 4.91995 5.04512 4.15595 5.00187C2.54866 4.90818 1.0639 5.52082 0.494499 6.50826C0.299895 6.83981 0.278272 6.94792 0.292687 7.38758C0.299894 7.76958 0.271064 7.95698 0.162951 8.14438C0.0404219 8.37502 0.0260067 8.59125 0.00438401 10.7896C-0.0100311 12.3031 0.0115916 13.2834 0.0620446 13.4636C0.162951 13.8672 0.63865 14.3789 1.05669 14.5375C1.34499 14.6456 1.61167 14.6672 2.873 14.6672H4.35055L4.73976 14.4438C4.95599 14.3213 5.22987 14.0906 5.3524 13.9176L5.57584 13.6077L5.59025 10.8616L5.59746 8.10834L5.87856 8.02185C6.39029 7.86328 6.37588 7.85607 6.42633 8.62728C6.45516 9.01649 6.52003 9.52823 6.5849 9.76608C6.72905 10.3211 7.17592 11.258 7.67324 12.0437C8.78321 13.8095 8.95619 14.7393 8.59581 17.1538C8.27868 19.3089 9.04268 20.5846 10.9455 21.0531C11.5581 21.2045 13.7997 21.1901 14.4051 21.0243C15.5872 20.7072 16.3079 20.0729 16.5962 19.0999C16.7404 18.617 16.7404 17.6512 16.6034 16.6854C16.5458 16.2889 16.4953 15.6547 16.4953 15.2799C16.4953 14.105 16.7332 13.4203 17.6125 12.0004C18.4558 10.6382 18.7441 9.85257 18.8378 8.59125C18.8666 8.22366 18.9171 7.92815 18.9387 7.92815C19.1765 7.92815 19.9982 8.22366 20.6757 8.55521C21.6415 9.03091 21.9731 9.08857 22.8164 8.90117C23.8038 8.68494 24.6399 8.20204 24.9065 7.6903C25.2525 7.01279 24.6038 5.95327 23.5227 5.44154C22.7875 5.09557 22.3479 5.00908 21.3604 5.01629C20.3658 5.0235 19.7675 5.14603 18.9819 5.5064L18.4558 5.75146L18.3765 5.44154C18.3332 5.27576 18.2828 5.08837 18.2612 5.03071C18.2251 4.94421 18.29 4.90818 18.4918 4.86493C19.8757 4.60546 20.9784 3.05583 20.9928 1.33322C21.0073 0.410651 20.8126 -0.000181099 20.3802 -0.000181099C20.0126 -0.000181099 19.7675 0.187216 19.4937 0.670123C19.1621 1.26114 18.7008 1.68639 18.0449 1.98911C16.971 2.48643 16.0196 2.55851 14.8736 2.24858C13.5546 1.881 11.7167 1.881 10.4049 2.24137C9.23008 2.57292 8.23543 2.47922 7.13988 1.94586C6.45516 1.62152 6.08037 1.26835 5.75603 0.655708C5.48935 0.165593 5.26591 -0.000181099 4.86229 -0.000181099C4.67489 -0.000181099 4.57399 0.0430643 4.4947 0.172801ZM14.333 3.81983C15.825 4.24508 16.5025 5.00187 16.4016 6.12626C16.3223 7.01279 15.7025 7.96419 14.4772 9.08136C14.1168 9.42012 13.7708 9.77329 13.7204 9.87419C13.5835 10.1553 13.4393 12.2887 13.497 13.3266C13.5835 15.0781 13.7925 15.6042 14.7367 16.4619C15.2484 16.9304 15.3565 17.0746 15.4502 17.3845C15.8106 18.6098 15.1691 19.4603 13.6123 19.7918C12.6753 19.9936 11.4284 19.8567 10.6788 19.4675C10.3256 19.2873 9.94363 18.9053 9.8211 18.617C9.67695 18.2782 9.69857 17.6079 9.86434 17.2475C9.94363 17.0674 10.2824 16.6637 10.6788 16.2745C11.3059 15.6619 11.3779 15.561 11.5077 15.1357C11.7455 14.3717 11.832 12.9518 11.7455 11.5464C11.623 9.7805 11.7167 9.99672 10.686 8.99487C9.70578 8.03626 9.22287 7.39479 8.99944 6.76052C8.82645 6.2632 8.81204 5.57848 8.9706 5.20369C9.26612 4.49734 10.1526 3.94957 11.414 3.70451C12.1491 3.56036 13.6339 3.61802 14.333 3.81983ZM3.34149 7.32992C3.48564 7.51732 3.72349 7.91373 3.86764 8.20924L4.13432 8.74981L4.15595 10.8544C4.17757 12.714 4.16315 12.9735 4.06225 13.0744C3.96134 13.1681 3.75953 13.1897 2.80813 13.1897C2.0225 13.1897 1.64771 13.1608 1.59005 13.1032C1.52518 13.0383 1.50356 12.4473 1.50356 10.8833V8.75702L1.82069 8.21645C2.23873 7.4957 2.69281 6.99117 2.90904 6.99117C3.03156 6.99117 3.1613 7.09207 3.34149 7.32992Z" fill="white"/>
<path d="M12.1423 16.6493C11.7027 16.8222 11.1693 17.1754 10.9963 17.4133C10.9243 17.5142 10.845 17.7016 10.8233 17.8385C10.7945 18.0403 10.8161 18.1124 10.9747 18.2566C11.2702 18.5304 11.7459 18.6313 12.7117 18.6313C13.6775 18.6241 14.1388 18.4872 14.3695 18.134C14.6217 17.7448 14.2325 17.197 13.4037 16.7934C12.8126 16.4979 12.5748 16.4691 12.1423 16.6493Z" fill="white"/>
<path d="M2.44103 8.14384C2.35454 8.23033 2.29688 8.38169 2.29688 8.54026C2.29688 9.05921 2.91673 9.28985 3.22665 8.89343C3.42846 8.64117 3.41405 8.39611 3.19782 8.17988C2.98159 7.95645 2.64284 7.94203 2.44103 8.14384Z" fill="white"/>
</svg>
