<svg width="33" height="40" viewBox="0 0 33 40" fill="none" xmlns="http://www.w3.org/2000/svg">
<path d="M8.01286 1.42297C6.1081 5.23248 4.44984 9.03079 3.97925 10.6891L3.68794 11.675V18.0616V24.4481L1.98486 26.2296C1.04368 27.2156 0.214555 28.1344 0.136124 28.2688C-0.0543517 28.605 -0.0431473 28.9635 0.158533 29.3557C0.382622 29.7814 0.640325 29.9159 1.24537 29.9159C1.70475 29.9159 1.77197 29.8711 2.71315 28.8963L3.68794 27.8655V31.8879C3.68794 34.2296 3.74396 36.1232 3.81119 36.4145C4.06889 37.5573 4.97645 38.7786 5.98485 39.3725C7.07168 40.0223 6.75796 39.9999 17.9176 39.9999C29.0772 39.9999 28.7635 40.0223 29.8503 39.3725C30.377 39.0699 31.2285 38.2072 31.5646 37.647C32.1697 36.6162 32.1473 37.0307 32.1473 23.8655C32.1473 10.4313 32.2033 11.451 31.4078 9.32211C30.8139 7.73108 29.94 5.7927 28.4386 2.71148L27.1277 0H17.9288H8.72994L8.01286 1.42297ZM26.5674 4.22408C27.8447 6.87954 29.0884 9.73667 29.4694 10.8795L29.7943 11.8543V22.1176V32.3809H17.9176H6.04087L6.05208 28.8739V25.3781L11.6319 19.5518L17.2117 13.7367L17.94 13.7255C18.9372 13.7143 19.6207 13.2997 20.0689 12.4482C20.9652 10.7339 19.8448 8.85152 17.9176 8.85152C16.4162 8.85152 15.3854 9.94956 15.475 11.4397L15.5086 12.0784L10.8028 16.9972L6.09689 21.9271L6.06328 16.986C6.04087 13.6582 6.07449 11.8767 6.15292 11.5406C6.41062 10.521 7.63191 7.67505 9.3798 3.99999L10.1753 2.35294H17.9176H25.6599L26.5674 4.22408Z" fill="#0B9DDD"/>
</svg>
