<svg width="30" height="29" viewBox="0 0 30 29" fill="none" xmlns="http://www.w3.org/2000/svg">
<path d="M16.5207 0.109831C15.0971 0.423909 13.9723 0.947372 12.9002 1.80236C11.1953 3.14592 10.1057 5.1089 9.82445 7.35979C9.61354 8.9738 10.0178 10.867 10.9053 12.4287C11.4414 13.3796 12.9617 14.8802 13.9196 15.4124C16.2747 16.7385 19.1043 16.8955 21.4331 15.8486L22.0043 15.5869L24.2013 17.7593C26.6267 20.1497 26.8024 20.2719 27.7691 20.2544C29.3597 20.2195 30.4142 18.6317 29.843 17.1224C29.7024 16.7559 29.3421 16.3459 27.5318 14.54L25.3876 12.4025L25.66 11.8179C25.8006 11.5039 26.0291 10.8932 26.1609 10.4744C26.3718 9.78517 26.3982 9.56706 26.3982 8.31075C26.407 7.11551 26.3806 6.81015 26.2049 6.182C25.4052 3.26806 23.1555 1.02589 20.2555 0.240697C19.3416 -0.0123101 17.3644 -0.0821052 16.5207 0.109831ZM19.8601 2.84929C21.5561 3.3902 23.0237 4.84717 23.5598 6.52225C23.964 7.77856 23.8585 9.48854 23.2873 10.6663C21.8989 13.5454 18.454 14.7232 15.5629 13.3098C14.4995 12.7951 13.5417 11.8354 13.032 10.7972C12.2059 9.11339 12.1971 7.39469 13.0144 5.73706C13.7174 4.30626 15.2817 3.0674 16.8195 2.71842C17.5928 2.54393 19.1307 2.61373 19.8601 2.84929Z" fill="white"/>
<path d="M17.6728 4.46337C17.1983 4.72511 17.084 5.38816 17.4443 5.80693C17.7079 6.12101 18.0243 6.21697 18.411 6.08611C19.1316 5.85055 19.2194 4.82107 18.5428 4.4721C18.2352 4.31506 17.954 4.30634 17.6728 4.46337Z" fill="white"/>
<path d="M16.6178 6.90606C16.5563 6.97586 16.5211 7.20269 16.5387 7.41208L16.5651 7.78722L16.9869 7.8134L17.3999 7.83957V9.4972V11.1461H17.0045H16.6002L16.6266 11.6434L16.6529 12.1494H18.1469H19.6408L19.6672 11.6434L19.6935 11.1461H19.2541H18.806L18.7884 8.98246L18.762 6.82754L17.7426 6.80137C16.9342 6.78392 16.6969 6.80137 16.6178 6.90606Z" fill="white"/>
<path d="M1.5818 3.98345C0.940293 4.18411 0.421814 4.6116 0.166968 5.16996C0.00878778 5.50149 0 6.02495 0 16.2848C0 24.5119 0.0263633 27.1292 0.105453 27.4084C0.246058 27.8795 0.896354 28.5251 1.37089 28.6647C1.64332 28.7432 3.71723 28.7694 9.89504 28.7694C17.9183 28.7694 18.0677 28.7607 18.4543 28.5862C18.9816 28.3506 19.2277 28.1151 19.4737 27.5916L19.6846 27.1554V22.4093V17.6633L19.3595 17.7243C19.1749 17.7505 18.6213 17.7767 18.1292 17.7767H17.2241V22.0516V26.3266H9.84232H2.46058V16.3372V6.34775H5.56267H8.66475L8.86687 5.65853C8.98111 5.27466 9.16566 4.75992 9.2799 4.51563C9.39414 4.26263 9.49081 4.02707 9.49081 3.98345C9.49081 3.88748 1.89816 3.88748 1.5818 3.98345Z" fill="white"/>
<path d="M4.1914 8.5812C4.15625 8.6161 4.12988 9.16573 4.12988 9.81134V10.9717H6.51137H8.89286L8.84013 10.771C8.76983 10.5267 8.54135 9.18318 8.5062 8.83421L8.47984 8.57248L6.36198 8.5463C5.20199 8.53758 4.22655 8.55503 4.1914 8.5812Z" fill="white"/>
<path d="M4.12988 13.8507V15.0721H7.74166H11.3447L10.8701 14.5138C10.6153 14.2084 10.2022 13.6588 9.97376 13.2924L9.55194 12.6293H6.83652H4.12988V13.8507Z" fill="white"/>
<path d="M4.14746 18.0995L4.17382 19.3035H9.71012H15.2464L15.2728 18.3438L15.2904 17.3841L14.6489 17.1398L13.9986 16.9043H9.05983H4.12109L4.14746 18.0995Z" fill="white"/>
<path d="M4.12988 22.357V23.5348H9.71012H15.2904V22.357V21.1792H9.71012H4.12988V22.357Z" fill="white"/>
</svg>
