<svg width="30" height="30" viewBox="0 0 30 30" fill="none" xmlns="http://www.w3.org/2000/svg">
<g clip-path="url(#clip0_89_1525)">
<g clip-path="url(#clip1_89_1525)">
<path d="M0.516556 0.755043C0.0496689 1.08286 0 1.34114 0 3.52657C0 5.78153 0.0496689 6.02988 0.596027 6.30802L0.89404 6.46696V12.1292C0.89404 18.2484 0.884106 18.0795 1.4404 18.8146C1.57947 18.9935 1.88742 19.2517 2.12583 19.3809C2.51325 19.5795 2.57285 19.659 2.63245 20.0365C2.82119 21.308 3.61589 23.3246 4.40066 24.5564C4.91722 25.361 5.98013 26.4537 6.7649 26.9703C7.95695 27.7749 9.37748 28.2418 10.9967 28.3809C11.702 28.4405 11.7914 28.4703 12.0795 28.7782C12.6159 29.3445 12.894 29.4041 14.9205 29.4041C16.9371 29.4041 17.3046 29.3146 17.7914 28.7385C18.0199 28.4703 18.1093 28.4405 18.8841 28.3809C23.0464 28.0531 25.9371 25.3511 27.0993 20.6822L27.3576 19.6491L27.8245 19.4206C28.0728 19.2915 28.4106 19.0332 28.5596 18.8544C29.1755 18.1292 29.1556 18.3577 29.1854 12.0994C29.2152 6.4471 29.2152 6.36763 29.4139 6.30802C29.5232 6.26829 29.702 6.09941 29.8113 5.93054C29.9801 5.64246 30 5.41398 30 3.54643C30 1.34114 29.9503 1.08286 29.4834 0.755043C29.1556 0.516632 24.0894 0.516632 23.7616 0.755043C23.2947 1.08286 23.245 1.34114 23.245 3.54643C23.245 5.85107 23.3046 6.09941 23.9305 6.35769L24.2384 6.4769V12.159V17.8411L24.4967 18.3577C24.6358 18.6458 24.8642 18.9537 24.9934 19.063C25.2914 19.2915 25.2914 19.4107 24.9934 20.4637C24.2781 23.0564 23.0464 24.7352 21.2285 25.6193C20.4536 26.0067 19.2318 26.3246 18.5762 26.3246H18.2781L18.6159 25.6491C19.2318 24.4372 19.6391 22.7683 19.8675 20.563C19.947 19.8378 20.0265 19.4901 20.1258 19.4405C20.4834 19.2418 20.9901 18.7153 21.1887 18.3378C21.4073 17.9305 21.4073 17.8809 21.4371 12.1988L21.4669 6.45703L21.755 6.30802C22.3013 6.02988 22.351 5.78153 22.351 3.5067C22.351 1.61928 22.3311 1.41067 22.1523 1.11266C22.043 0.933849 21.8344 0.745108 21.6954 0.69544C21.5563 0.635838 20.2947 0.596102 18.8543 0.596102H16.2715L15.9338 0.933849L15.596 1.2716V3.41729C15.596 5.79147 15.6457 6.01994 16.1921 6.30802L16.4901 6.46696V12.0597C16.4901 16.0233 16.5199 17.7517 16.6093 17.9901C16.7682 18.467 17.1755 19.0133 17.5629 19.2716C17.8808 19.5001 17.8907 19.51 17.8212 20.106C17.6225 22.1425 17.255 23.712 16.7682 24.7054L16.4603 25.3312H14.9106H13.351L13.1225 24.8544C12.5861 23.7716 12.2881 22.6193 12.0695 20.7617C11.9404 19.7186 11.9404 19.6093 12.0894 19.5199C12.5464 19.2418 13.0728 18.6756 13.2715 18.2286L13.5099 17.7319V12.0895V6.4471L13.8576 6.11928L14.2053 5.79147V3.52657V1.2716L13.8675 0.933849L13.5298 0.596102H10.9371C7.28146 0.596102 7.45033 0.457029 7.45033 3.4769C7.45033 5.8014 7.51987 6.07955 8.16556 6.34776L8.54305 6.5067V12.1193V17.7319L8.78146 18.2286C8.90066 18.4968 9.19868 18.8941 9.42715 19.1027L9.83444 19.4703L9.93377 20.4935C10.1623 22.7186 10.5099 24.1988 11.1358 25.5199L11.5232 26.3544L10.947 26.2848C9.24834 26.0862 8.2053 25.5895 7.04305 24.4372C6.29801 23.6921 6.10927 23.4438 5.68212 22.5398C5.2053 21.5663 4.66887 19.9868 4.66887 19.5597C4.66887 19.4504 4.82781 19.2219 5.02649 19.0531C5.21523 18.8842 5.47351 18.5564 5.59272 18.3378C5.81126 17.9305 5.81126 17.8809 5.84106 12.1988L5.87086 6.45703L6.15894 6.30802C6.7053 6.02988 6.75497 5.78153 6.75497 3.52657C6.75497 1.90736 6.72517 1.4206 6.60596 1.19213C6.29801 0.606035 6.25828 0.596102 3.37748 0.596102C1.15232 0.596102 0.705298 0.615969 0.516556 0.755043Z" fill="#006AA9"/>
</g>
</g>
<defs>
<clipPath id="clip0_89_1525">
<rect width="30" height="30" fill="white"/>
</clipPath>
<clipPath id="clip1_89_1525">
<rect width="30" height="30" fill="white"/>
</clipPath>
</defs>
</svg>
