<svg width="40" height="41" viewBox="0 0 40 41" fill="none" xmlns="http://www.w3.org/2000/svg">
<path d="M18.0346 0.0449867C15.0525 0.465183 13.3446 0.966709 11.1217 2.05109C9.12911 3.02703 7.47543 4.21984 5.83531 5.85997C2.92104 8.77423 1.02338 12.3798 0.264317 16.4327C-0.0881057 18.3032 -0.0881057 21.7461 0.264317 23.6167C0.792952 26.4225 2.01288 29.3368 3.62589 31.6139C4.72382 33.1727 6.85191 35.3008 8.41071 36.3988C10.6879 38.0118 13.6022 39.2317 16.408 39.7603C18.2786 40.1128 21.7215 40.1128 23.592 39.7603C26.3978 39.2317 29.3121 38.0118 31.5893 36.3988C33.1481 35.3008 35.2762 33.1727 36.3741 31.6139C37.9871 29.3368 39.2071 26.4225 39.7357 23.6167C40.0881 21.7461 40.0881 18.3032 39.7357 16.4327C39.2071 13.6268 37.9871 10.7126 36.3741 8.43536C35.2762 6.87657 33.1481 4.74848 31.5893 3.65054C29.3934 2.09175 26.6012 0.88538 23.9309 0.356747C22.6974 0.099205 18.9834 -0.0905609 18.0346 0.0449867ZM23.1176 4.2334C25.2321 4.66715 27.3196 5.54821 29.0952 6.74102C30.2067 7.48653 32.5246 9.81795 33.2836 10.9294C35.1813 13.7488 36.0488 16.6089 36.0488 20.0247C36.0488 23.4404 35.1813 26.3005 33.2836 29.1199C32.5381 30.2314 30.2067 32.5628 29.0952 33.3083C26.2758 35.206 23.4158 36.0735 20 36.0735C16.5842 36.0735 13.7242 35.206 10.9048 33.3083C9.79329 32.5628 7.46188 30.2314 6.71637 29.1199C4.81871 26.3005 3.9512 23.4404 3.9512 20.0247C3.9512 16.6089 4.81871 13.7488 6.71637 10.9294C7.47543 9.81795 9.79329 7.48653 10.9048 6.74102C12.7753 5.48043 15.1881 4.50449 17.2213 4.17918C17.7499 4.09785 18.3192 4.00297 18.509 3.97586C19.1867 3.85387 22.1281 4.01652 23.1176 4.2334Z" fill="#0B9DDD"/>
<path d="M19.0775 5.92783C18.1287 6.51069 17.8305 7.66284 18.4134 8.51679C19.2266 9.73671 20.8668 9.7096 21.6258 8.46257C22.5882 6.89022 20.6634 4.96545 19.0775 5.92783Z" fill="#0B9DDD"/>
<path d="M11.4876 9.58749C10.6607 10.089 10.2948 11.1598 10.6336 12.0544C10.7014 12.2307 12.4093 14.2774 14.4289 16.6224C16.4486 18.9674 18.1023 20.9192 18.1023 20.9735C18.1023 21.0412 16.7332 22.8711 15.0525 25.0399C13.3717 27.2222 12.0026 29.1334 12.0026 29.269C12.0026 29.54 12.5719 30.1907 12.8159 30.1907C13.209 30.1907 13.697 29.6485 16.5299 25.948C19.5391 22.0307 19.5797 21.9901 20.0948 21.963C20.637 21.9494 27.9837 18.7098 28.4445 18.2896C28.9189 17.8694 29.1087 17.3137 29.0409 16.5953C28.9596 15.66 28.2954 14.9958 27.3466 14.9009C26.7231 14.8467 26.452 14.9416 23.6055 16.2293C21.9112 16.9884 20.515 17.5848 20.4879 17.5712C20.4744 17.5441 18.9291 15.7413 17.045 13.5726C14.5509 10.6719 13.5343 9.57393 13.209 9.4655C12.5719 9.24862 11.9891 9.28928 11.4876 9.58749Z" fill="#0B9DDD"/>
<path d="M6.75707 18.3439C6.16067 18.6421 5.76758 19.3063 5.76758 20.0247C5.76758 22.0308 8.3972 22.6136 9.33247 20.8244C10.1458 19.2791 8.35653 17.5577 6.75707 18.3439Z" fill="#0B9DDD"/>
<path d="M31.2641 18.3709C30.7084 18.6691 30.3018 19.374 30.3018 20.0246C30.3018 21.4614 31.9012 22.3967 33.1076 21.6512C35.2086 20.377 33.4193 17.2188 31.2641 18.3709Z" fill="#0B9DDD"/>
<path d="M19.0777 30.4617C17.8035 31.2343 17.8035 32.9422 19.0777 33.7148C20.2569 34.4332 21.8971 33.4844 21.8971 32.0883C21.8971 31.1259 20.9618 30.1906 19.9994 30.1906C19.7419 30.1906 19.3217 30.3126 19.0777 30.4617Z" fill="#0B9DDD"/>
</svg>
