<svg width="50" height="50" viewBox="0 0 50 50" fill="none" xmlns="http://www.w3.org/2000/svg">
<circle cx="25" cy="25" r="25" fill="white"/>
<path d="M22.1501 13.082C21.7242 13.1699 21.4132 13.3457 21.4132 13.4944C21.4132 13.5823 21.0279 13.5958 18.513 13.5958H15.606L15.4708 13.7648C15.099 14.2448 15.099 15.9214 15.4708 16.4014L15.606 16.5704H18.513H21.4132V16.976V17.3816H22.9005H24.3878V16.976V16.5704H27.2813C30.6075 16.5704 30.3235 16.6312 30.5128 15.8943C30.6345 15.4076 30.6142 14.407 30.4723 14.0352C30.2965 13.5687 30.4925 13.5958 27.2813 13.5958C24.7732 13.5958 24.3878 13.5823 24.3878 13.4944C24.3878 13.3457 24.0769 13.1699 23.6172 13.0752C23.1169 12.9738 22.6504 12.9738 22.1501 13.082ZM20.0273 18.1591C19.6893 18.2808 19.4121 18.5782 19.3175 18.9366L19.2431 19.207H16.2415H13.2331V22.8238V26.4407H21.6161C30.7494 26.4407 30.3911 26.4271 30.5399 26.8125C30.5804 26.9139 30.6075 27.3398 30.6075 27.7657V28.5364H32.8384H35.0694V27.5629C35.0694 26.0621 34.8328 24.9466 34.2987 23.9123C33.555 22.4588 32.4193 21.5055 30.8103 20.9579L30.4385 20.8295L30.7765 20.87C33.0345 21.1202 34.6232 22.1478 35.6373 24.0069C36.1781 25.0074 36.5567 26.6164 36.5567 27.9212V28.5364H37.2057H37.8614L37.8209 27.2992C37.7736 26.0012 37.6857 25.3996 37.395 24.5139C36.5296 21.8909 34.2919 19.9912 31.3511 19.3692C30.9725 19.2881 30.2694 19.2543 28.6402 19.2273L26.443 19.1934L26.3619 18.9028C26.2605 18.5242 25.963 18.2335 25.5777 18.1321C25.0977 18.0171 20.3789 18.0374 20.0273 18.1591ZM11.1914 19.0177L11.0021 19.0853V22.8238C11.0021 27.1438 10.921 26.7111 11.7593 26.7111C12.0973 26.7111 12.3069 26.6773 12.4083 26.6029L12.557 26.5015V22.8711C12.557 20.8768 12.53 19.207 12.503 19.1596C12.3745 18.9501 11.5971 18.8689 11.1914 19.0177ZM30.2897 29.3815C29.8165 29.5843 29.7286 30.2874 30.1342 30.6457L30.3371 30.835H34.2311H38.1251L38.3212 30.6389C38.4834 30.4699 38.5172 30.3888 38.5172 30.0981C38.5172 29.8141 38.4834 29.7195 38.3212 29.537L38.1251 29.3139L34.3122 29.3003C31.1753 29.2868 30.4655 29.3003 30.2897 29.3815ZM33.6024 33.0794C31.6215 35.858 30.5804 37.8726 30.4925 39.0963C30.3641 40.8337 31.4931 42.4089 33.2035 42.9024C33.7578 43.0646 34.9477 43.0173 35.4953 42.8145C37.253 42.1723 38.3009 40.2523 37.8479 38.5081C37.6722 37.8456 36.8879 36.2366 36.1916 35.1143C35.5967 34.1679 34.3257 32.3764 34.2176 32.3425C34.1838 32.329 33.9066 32.6603 33.6024 33.0794ZM34.9139 35.7363C35.5494 36.7301 36.2254 38.0213 36.4215 38.6095C36.7933 39.7182 36.2998 40.8675 35.2181 41.3948C34.8125 41.5976 34.7111 41.6179 34.1905 41.6179C33.4942 41.6111 33.1359 41.4692 32.6221 40.9959C32.2232 40.6241 31.919 40.0427 31.8582 39.5289C31.8244 39.2517 31.8446 39.0692 31.9866 38.6568C32.2773 37.7982 32.9804 36.4935 33.8728 35.1684C34.2649 34.587 34.1432 34.5194 34.9139 35.7363Z" fill="#006AA9"/>
</svg>
