<svg width="23" height="23" viewBox="0 0 23 23" fill="none" xmlns="http://www.w3.org/2000/svg">
<path d="M0.396026 0.137323C0.0380795 0.388647 0 0.58666 0 2.26216C0 3.99097 0.0380795 4.18136 0.456954 4.39461L0.68543 4.51646V8.85752C0.68543 13.5489 0.677815 13.4194 1.1043 13.983C1.21093 14.1201 1.44702 14.3181 1.6298 14.4171C1.92682 14.5694 1.97252 14.6304 2.01821 14.9198C2.16291 15.8946 2.77219 17.4406 3.37384 18.385C3.76987 19.0019 4.58477 19.8396 5.18642 20.2357C6.10033 20.8526 7.1894 21.2105 8.43079 21.3171C8.97152 21.3628 9.04007 21.3857 9.26093 21.6218C9.67219 22.0559 9.88543 22.1016 11.4391 22.1016C12.9851 22.1016 13.2669 22.033 13.6401 21.5913C13.8152 21.3857 13.8838 21.3628 14.4778 21.3171C17.6689 21.0658 19.8851 18.9943 20.7762 15.4148L20.9742 14.6228L21.3321 14.4476C21.5225 14.3486 21.7815 14.1506 21.8957 14.0135C22.3679 13.4575 22.3526 13.6327 22.3755 8.83467C22.3983 4.50123 22.3983 4.4403 22.5507 4.39461C22.6344 4.36414 22.7715 4.23467 22.8553 4.1052C22.9848 3.88434 23 3.70918 23 2.27739C23 0.58666 22.9619 0.388647 22.604 0.137323C22.3526 -0.0454588 18.4685 -0.0454588 18.2172 0.137323C17.8593 0.388647 17.8212 0.58666 17.8212 2.27739C17.8212 4.04428 17.8669 4.23467 18.3467 4.43269L18.5828 4.52408V8.88037V13.2367L18.7808 13.6327C18.8874 13.8535 19.0626 14.0896 19.1616 14.1734C19.3901 14.3486 19.3901 14.44 19.1616 15.2473C18.6132 17.235 17.6689 18.5221 16.2752 19.1999C15.6811 19.4969 14.7444 19.7406 14.2417 19.7406H14.0132L14.2722 19.2228C14.7444 18.2936 15.0566 17.0141 15.2318 15.3234C15.2927 14.7675 15.3536 14.5009 15.4298 14.4628C15.704 14.3105 16.0924 13.9069 16.2447 13.6175C16.4123 13.3052 16.4123 13.2671 16.4351 8.91083L16.4579 4.50885L16.6788 4.39461C17.0977 4.18136 17.1358 3.99097 17.1358 2.24693C17.1358 0.799905 17.1205 0.639972 16.9834 0.411495C16.8997 0.274409 16.7397 0.129707 16.6331 0.0916273C16.5265 0.0459319 15.5593 0.0154683 14.455 0.0154683H12.4748L12.2159 0.274409L11.957 0.533349V2.17838C11.957 3.99858 11.995 4.17375 12.4139 4.39461L12.6424 4.51646V8.80421C12.6424 11.843 12.6652 13.1681 12.7338 13.3509C12.8556 13.7165 13.1679 14.1353 13.4649 14.3334C13.7086 14.5085 13.7162 14.5161 13.6629 14.9731C13.5106 16.5343 13.2288 17.7377 12.8556 18.4992L12.6195 18.979H11.4315H10.2358L10.0606 18.6135C9.64934 17.7834 9.42086 16.8999 9.25331 15.4757C9.1543 14.6761 9.1543 14.5923 9.26854 14.5237C9.61887 14.3105 10.0225 13.8764 10.1748 13.5337L10.3576 13.1529V8.82706V4.50123L10.6242 4.24991L10.8907 3.99858V2.26216V0.533349L10.6318 0.274409L10.3728 0.0154683H8.3851C5.58245 0.0154683 5.71192 -0.0911542 5.71192 2.22408C5.71192 4.0062 5.76523 4.21944 6.26026 4.42507L6.54967 4.54693V8.84991V13.1529L6.73245 13.5337C6.82384 13.7393 7.05232 14.0439 7.22748 14.2039L7.53974 14.4857L7.61589 15.2701C7.79106 16.9761 8.05762 18.1108 8.53742 19.1237L8.83444 19.7635L8.39272 19.7102C7.0904 19.5579 6.29073 19.1771 5.39967 18.2936C4.82848 17.7224 4.68377 17.532 4.35629 16.839C3.99073 16.0926 3.57947 14.8817 3.57947 14.5542C3.57947 14.4704 3.70132 14.2953 3.85364 14.1658C3.99834 14.0363 4.19636 13.785 4.28775 13.6175C4.4553 13.3052 4.4553 13.2671 4.47815 8.91083L4.50099 4.50885L4.72185 4.39461C5.14073 4.18136 5.17881 3.99097 5.17881 2.26216C5.17881 1.02077 5.15596 0.647588 5.06457 0.472422C4.82848 0.0230842 4.79801 0.0154683 2.5894 0.0154683C0.883444 0.0154683 0.540728 0.0307001 0.396026 0.137323Z" fill="white"/>
</svg>
