<svg width="14" height="13" viewBox="0 0 14 13" fill="none" xmlns="http://www.w3.org/2000/svg">
<path d="M0.24106 0.0806336C0.0231788 0.228463 0 0.344934 0 1.33046C0 2.34735 0.0231788 2.45934 0.278146 2.58477L0.417219 2.65644V5.20986C0.417219 7.96933 0.412583 7.89318 0.672185 8.22467C0.737086 8.30531 0.880795 8.42178 0.992053 8.48001C1.17285 8.56961 1.20066 8.60544 1.22848 8.77567C1.31656 9.34907 1.68742 10.2584 2.05364 10.8139C2.2947 11.1768 2.79073 11.6695 3.15695 11.9025C3.71325 12.2653 4.37616 12.4759 5.13179 12.5386C5.46093 12.5655 5.50265 12.5789 5.63709 12.7178C5.88742 12.9731 6.01722 13 6.96291 13C7.90397 13 8.0755 12.9597 8.30265 12.6999C8.40927 12.5789 8.45099 12.5655 8.81258 12.5386C10.755 12.3908 12.104 11.1723 12.6464 9.06685L12.7669 8.60096L12.9848 8.49793C13.1007 8.4397 13.2583 8.32323 13.3278 8.24259C13.6152 7.91558 13.606 8.01861 13.6199 5.19642C13.6338 2.64748 13.6338 2.61165 13.7265 2.58477C13.7775 2.56685 13.8609 2.4907 13.9119 2.41454C13.9907 2.28463 14 2.1816 14 1.33942C14 0.344935 13.9768 0.228463 13.7589 0.0806336C13.606 -0.0268785 11.2417 -0.0268785 11.0887 0.0806336C10.8709 0.228463 10.8477 0.344935 10.8477 1.33942C10.8477 2.3787 10.8755 2.4907 11.1675 2.60717L11.3113 2.66092V5.22329V7.78566L11.4318 8.01861C11.4967 8.14852 11.6033 8.28739 11.6636 8.33666C11.8026 8.4397 11.8026 8.49345 11.6636 8.9683C11.3298 10.1375 10.755 10.8946 9.90662 11.2932C9.54503 11.468 8.97484 11.6113 8.66888 11.6113H8.5298L8.68742 11.3067C8.97484 10.7602 9.1649 10.0076 9.27152 9.01309C9.30861 8.68608 9.3457 8.52929 9.39205 8.50689C9.55894 8.4173 9.79537 8.17988 9.88808 8.00965C9.99007 7.82598 9.99007 7.80358 10.004 5.24121L10.0179 2.65196L10.1523 2.58477C10.4073 2.45934 10.4305 2.34735 10.4305 1.3215C10.4305 0.470365 10.4212 0.376292 10.3377 0.241902C10.2868 0.161268 10.1894 0.0761536 10.1245 0.0537552C10.0596 0.0268772 9.47086 0.00895898 8.79868 0.00895898H7.59338L7.43576 0.161268L7.27815 0.313576V1.28118C7.27815 2.35183 7.30132 2.45486 7.55629 2.58477L7.69536 2.65644V5.1785C7.69536 6.96589 7.70927 7.74535 7.75099 7.85286C7.82517 8.06788 8.01523 8.31427 8.19603 8.43074C8.34437 8.53377 8.34901 8.53825 8.31656 8.80703C8.22384 9.72536 8.05232 10.4331 7.82517 10.8811L7.68146 11.1633H6.95828H6.23046L6.12384 10.9483C5.87351 10.46 5.73444 9.94039 5.63245 9.10269C5.57219 8.63232 5.57219 8.58305 5.64172 8.54273C5.85497 8.4173 6.10066 8.16196 6.19338 7.96037L6.30464 7.73639V5.19194V2.64748L6.46689 2.49965L6.62914 2.35183V1.33046V0.313576L6.47152 0.161268L6.31391 0.00895898H5.10397C3.39801 0.00895898 3.47682 -0.0537564 3.47682 1.30806C3.47682 2.35631 3.50927 2.48174 3.8106 2.60269L3.98676 2.67436V5.20538V7.73639L4.09801 7.96037C4.15364 8.08132 4.29272 8.26051 4.39934 8.35458L4.5894 8.52033L4.63576 8.98174C4.74238 9.98518 4.90464 10.6527 5.19669 11.2484L5.37748 11.6247L5.10861 11.5934C4.31589 11.5038 3.82914 11.2798 3.28676 10.7602C2.93907 10.4242 2.85099 10.3122 2.65166 9.90455C2.42914 9.46554 2.17881 8.75327 2.17881 8.56065C2.17881 8.51137 2.25298 8.40834 2.3457 8.33218C2.43377 8.25603 2.5543 8.1082 2.60993 8.00965C2.71192 7.82598 2.71192 7.80358 2.72583 5.24121L2.73974 2.65196L2.87417 2.58477C3.12914 2.45934 3.15232 2.34735 3.15232 1.33046C3.15232 0.600276 3.13841 0.380772 3.08278 0.277739C2.93907 0.013439 2.92053 0.00895898 1.57616 0.00895898C0.537748 0.00895898 0.329139 0.0179182 0.24106 0.0806336Z" fill="#006AA9"/>
</svg>
